<?xml version="1.0" standalone="no"?>
<!DOCTYPE svg PUBLIC "-//W3C//DTD SVG 20010904//EN"
 "http://www.w3.org/TR/2001/REC-SVG-20010904/DTD/svg10.dtd">
<svg version="1.0" xmlns="http://www.w3.org/2000/svg"
 width="707.000000pt" height="704.000000pt" viewBox="0 0 707.000000 704.000000"
 preserveAspectRatio="xMidYMid meet">

<g transform="translate(0.000000,704.000000) scale(0.100000,-0.100000)"
fill="#000000" stroke="none">
<path d="M3335 6350 c-1194 -87 -2198 -896 -2529 -2037 -126 -435 -145 -909
-55 -1363 145 -725 593 -1388 1214 -1796 125 -82 255 -155 367 -207 l76 -35
-30 67 c-36 80 -91 268 -108 371 -22 127 -17 396 9 463 6 15 10 38 9 51 -1 13
5 39 14 58 9 18 35 83 58 143 73 189 126 286 256 465 74 103 116 177 139 248
9 29 38 95 63 145 41 83 46 103 55 197 5 58 11 157 12 220 0 63 5 124 9 135 5
11 14 34 21 50 20 46 27 76 46 184 10 53 35 100 54 101 6 0 32 40 58 90 35 64
49 103 52 139 1 27 6 54 9 60 15 23 36 125 36 170 0 59 -21 174 -62 336 -23
92 -31 152 -35 257 -7 160 0 205 62 398 90 281 128 520 100 627 -8 32 -22 63
-31 70 -9 7 -14 19 -11 27 9 23 -42 46 -99 46 -64 0 -118 -28 -198 -102 -125
-114 -221 -260 -268 -407 -35 -108 -69 -164 -131 -214 -45 -37 -175 -107 -199
-107 -8 0 -18 -4 -23 -9 -6 -5 -27 -14 -47 -21 -42 -13 -68 -43 -68 -76 0 -12
18 -60 40 -106 l41 -84 -28 -88 c-22 -72 -25 -92 -16 -119 19 -55 10 -186 -16
-237 -42 -84 -82 -203 -85 -258 -5 -69 15 -102 75 -126 47 -19 198 -35 330
-36 76 0 89 -3 112 -24 14 -13 32 -36 40 -52 24 -47 64 -181 92 -302 14 -62
37 -148 50 -190 27 -83 30 -117 16 -155 -5 -14 -53 -82 -105 -151 -89 -117
-115 -158 -146 -226 -6 -14 -17 -36 -25 -50 -7 -14 -21 -68 -29 -120 -21 -128
-34 -163 -104 -267 -96 -143 -147 -258 -196 -443 l-14 -55 -1 45 c-1 78 18
218 41 286 12 36 47 106 79 156 36 56 68 121 84 172 14 44 35 110 47 146 11
36 21 69 22 75 4 26 30 75 40 75 15 0 59 69 127 198 30 57 71 124 92 149 46
56 48 93 13 214 -24 82 -37 138 -70 290 -19 86 -52 145 -99 176 -27 18 -53 22
-177 27 -223 9 -317 44 -347 127 -22 62 9 186 85 331 42 81 44 90 32 113 -11
20 -11 33 -3 55 6 16 7 34 2 41 -13 20 -11 86 5 151 18 76 12 129 -19 182 -63
108 -16 181 154 237 159 53 200 92 246 232 76 235 263 480 431 565 99 50 176
50 260 0 41 -25 119 -98 146 -138 10 -14 35 -49 55 -78 52 -73 83 -122 140
-222 46 -80 113 -214 113 -226 0 -3 6 -20 14 -37 45 -99 113 -332 125 -432 7
-54 15 -60 52 -32 271 201 730 367 1110 402 71 7 79 5 99 -15 20 -20 21 -28
15 -89 -44 -415 -192 -825 -401 -1113 -19 -27 -31 -48 -28 -48 26 0 263 -54
324 -74 279 -90 522 -221 768 -414 73 -58 82 -69 82 -98 0 -37 -23 -59 -194
-181 -270 -193 -647 -356 -902 -389 -84 -10 -84 -11 -12 -121 195 -295 330
-688 363 -1059 8 -100 -1 -108 -109 -100 -329 27 -763 172 -1022 342 -32 21
-61 41 -64 44 -12 13 -62 41 -66 37 -3 -3 -16 -60 -30 -128 -47 -227 -123
-422 -256 -657 -111 -194 -262 -382 -307 -382 -28 0 -83 59 -168 177 -219 308
-352 619 -408 956 -3 20 -9 37 -13 37 -4 0 -37 -21 -73 -48 -37 -26 -107 -69
-157 -97 -81 -45 -91 -53 -97 -85 -14 -68 -20 -252 -13 -373 8 -127 52 -365
85 -452 18 -49 19 -50 103 -83 486 -190 1057 -237 1590 -131 1020 203 1862
979 2154 1986 126 435 145 909 55 1363 -203 1020 -979 1862 -1986 2154 -306
88 -681 129 -988 106z"/>
<path d="M3306 5790 c-3 -25 -8 -67 -11 -95 -9 -76 -49 -235 -94 -377 -62
-195 -84 -313 -84 -453 -1 -111 4 -149 49 -385 14 -77 34 -289 30 -315 -4 -19
6 -65 28 -130 l33 -100 12 45 c29 107 42 146 81 238 74 173 175 325 312 469
49 51 78 90 78 104 0 53 -35 224 -67 329 -68 221 -142 377 -277 585 l-84 129
-6 -44z"/>
<path d="M4910 5170 c-191 -30 -259 -47 -440 -107 -198 -66 -476 -216 -587
-317 l-33 -29 0 -101 c0 -243 -78 -533 -202 -752 -17 -30 -28 -57 -25 -60 3
-3 42 15 88 40 107 57 213 99 330 131 134 36 205 46 364 54 l140 6 66 88 c138
184 255 437 324 704 21 79 65 314 65 346 0 8 -26 7 -90 -3z"/>
<path d="M3708 4582 c-215 -228 -357 -568 -393 -942 l-6 -65 32 35 c73 81 170
222 226 330 71 135 103 218 137 355 24 97 54 311 44 320 -2 3 -20 -12 -40 -33z"/>
<path d="M3141 3921 c-1 -7 -18 -50 -40 -96 l-39 -83 65 -86 c35 -47 66 -86
67 -86 1 0 1 26 -1 58 -7 91 -49 333 -52 293z"/>
<path d="M4310 3919 c-135 -13 -320 -60 -420 -106 -113 -52 -184 -90 -274
-149 -130 -86 -212 -155 -194 -165 17 -9 212 17 313 42 257 65 439 157 643
327 54 45 64 63 35 61 -10 -1 -56 -5 -103 -10z"/>
<path d="M4506 3845 c-189 -183 -425 -318 -675 -386 l-84 -23 94 -28 c135 -42
211 -73 318 -130 138 -74 283 -181 381 -282 52 -54 59 -55 206 -27 132 25 169
35 289 78 215 76 436 197 628 342 l58 44 -36 29 c-134 111 -400 264 -580 335
-168 65 -337 109 -460 119 l-60 5 -79 -76z"/>
<path d="M2974 3554 c-8 -20 -12 -40 -7 -44 9 -10 133 -18 133 -9 0 8 -38 41
-78 68 l-32 23 -16 -38z"/>
<path d="M3006 3369 c-43 -5 -81 -10 -83 -13 -2 -2 -7 -34 -10 -71 -6 -74 -9
-73 57 -26 90 65 151 125 123 120 -5 -1 -43 -5 -87 -10z"/>
<path d="M3450 3330 c228 -208 587 -361 905 -386 l90 -7 -19 22 c-10 11 -44
40 -75 63 -31 24 -58 46 -61 49 -15 17 -137 91 -218 133 -172 88 -405 153
-582 163 l-85 4 45 -41z"/>
<path d="M3147 3237 c-51 -60 -117 -145 -117 -151 0 -3 -22 -40 -48 -83 -27
-43 -55 -94 -64 -113 -9 -19 -25 -55 -37 -80 -31 -68 -50 -125 -77 -230 -24
-97 -50 -308 -38 -319 7 -7 71 63 110 119 13 19 42 60 64 90 83 115 167 314
208 490 26 111 57 330 47 330 -1 0 -23 -24 -48 -53z"/>
<path d="M3310 3263 c0 -36 34 -238 53 -323 52 -222 184 -475 331 -635 l55
-60 -5 65 c-11 138 -37 270 -75 384 -38 112 -100 249 -139 305 -9 14 -34 52
-54 84 -38 58 -154 207 -162 207 -2 0 -4 -12 -4 -27z"/>
<path d="M3620 3065 c0 -2 22 -46 48 -97 114 -221 169 -429 179 -678 5 -130 8
-146 27 -162 26 -23 191 -137 228 -158 136 -77 249 -125 423 -182 164 -53 457
-109 469 -90 9 15 -40 280 -74 397 -79 276 -160 441 -355 716 -20 29 -20 29
-133 29 -193 0 -376 37 -577 117 -49 19 -115 50 -145 67 -57 34 -90 48 -90 41z"/>
<path d="M3235 2875 c-33 -116 -57 -181 -110 -290 -80 -167 -165 -286 -297
-420 l-59 -60 5 -65 c11 -143 72 -360 154 -545 53 -120 143 -280 211 -375 17
-25 48 -69 67 -98 31 -47 64 -68 64 -41 0 6 15 29 33 52 116 145 244 372 320
567 55 141 116 392 117 478 0 15 -30 55 -89 117 -99 106 -219 279 -277 400
-20 44 -56 139 -80 210 l-42 130 -17 -60z"/>
<path d="M2653 2498 c-16 -29 -70 -123 -121 -209 -81 -138 -152 -287 -152
-319 0 -17 86 33 187 109 l88 66 3 115 c1 63 8 154 15 203 7 48 12 87 11 87
-1 0 -15 -24 -31 -52z"/>
</g>
</svg>
